<?xml version="1.0" encoding="utf-8"?>
<!-- Generator: Adobe Illustrator 15.1.0, SVG Export Plug-In . SVG Version: 6.00 Build 0)  -->
<!DOCTYPE svg PUBLIC "-//W3C//DTD SVG 1.1//EN" "http://www.w3.org/Graphics/SVG/1.1/DTD/svg11.dtd">
<svg version="1.1" id="Livello_1" xmlns="http://www.w3.org/2000/svg" xmlns:xlink="http://www.w3.org/1999/xlink" x="0px" y="0px"
	 width="30px" height="30px" viewBox="0 0 30 30" enable-background="new 0 0 30 30" xml:space="preserve">
<rect fill="#D7D1C7" width="30" height="30"/>
<path id="Facebook_3_" fill="#675C4B" d="M12.653,10.425c0,0.402,0,2.19,0,2.19h-1.605v2.677h1.605v7.951h3.294v-7.952h2.208
	c0,0,0.207-1.283,0.31-2.683c-0.289,0-2.503,0-2.503,0s0-1.559,0-1.831c0-0.277,0.359-0.645,0.717-0.645c0.35,0,1.095,0,1.79,0
	c0-0.367,0-1.623,0-2.783c-0.919,0-1.977,0-2.444,0C12.568,7.347,12.653,10.027,12.653,10.425z"/>
</svg>
