<?xml version="1.0" encoding="utf-8"?>
<!-- Generator: Adobe Illustrator 15.1.0, SVG Export Plug-In . SVG Version: 6.00 Build 0)  -->
<!DOCTYPE svg PUBLIC "-//W3C//DTD SVG 1.1//EN" "http://www.w3.org/Graphics/SVG/1.1/DTD/svg11.dtd">
<svg version="1.1" id="Livello_1" xmlns="http://www.w3.org/2000/svg" xmlns:xlink="http://www.w3.org/1999/xlink" x="0px" y="0px"
	 width="30px" height="30px" viewBox="0 0 30 30" enable-background="new 0 0 30 30" xml:space="preserve">
<rect fill="#D7D1C7" width="30" height="30"/>
<g>
	<g>
		<path fill="#685C4B" d="M18.014,8.524c0.291,0.12,0.241,0.93-0.152,0.979h-1.885c0.057,0.406,0.057,0.81,0.057,1.219
			c0,1.65-1.069,3.803-4.398,3.803c-0.469,0-0.835-0.052-1.147-0.074c-0.318,0.169-1.15,0.619-1.15,1.313
			c0,0.55,0.601,1.003,1.832,1.003c0.892,0,1.962-0.074,3.113-0.074c1.467,0,3.663,0.244,3.663,2.627c0,2.606-3.111,4.52-6.512,4.52
			c-3.215,0-4.338-1.574-4.338-2.772c0-0.392,0.105-0.694,0.285-0.881c0.446-0.432,1.179-1.052,1.781-1.601
			c0.242-0.208,0.446-0.432,0.209-0.572c-1.02-0.245-1.907-1.055-1.907-1.886c0-0.124,0.104-0.212,0.394-0.406
			c0.445-0.261,0.946-0.67,1.387-1.1c0.132-0.141,0.255-0.335,0.255-0.458c-0.882-0.431-1.961-1.366-1.961-2.892
			c0-2.049,1.937-3.607,4.261-3.607c0.994,0,1.908,0.244,2.513,0.479c0.835,0.331,1.021,0.382,1.593,0.382h2.119V8.524h-0.006V8.522
			h-0.004V8.524L18.014,8.524z M12.55,18.172c-0.841,0-1.883,0.053-2.247,0.264c-0.625,0.357-1.259,1.104-1.259,2.006
			c0,1.295,1.127,2.364,3.507,2.364c2.329,0,3.871-1.188,3.871-2.551c0-1.459-1.099-2.08-2.981-2.08L12.55,18.172L12.55,18.172z
			 M14.173,11.34c0-1.623-0.734-2.981-2.33-2.981c-1.257,0-2.195,1.051-2.195,2.674c0,1.698,1.126,2.793,2.381,2.793
			C13.437,13.827,14.173,12.799,14.173,11.34z"/>
	</g>
	<g>
		<path fill="#685C4B" d="M20.742,15.238v-3.195h-2.894v-1.481h2.894V7.394h1.237v3.168h2.894v1.481h-2.894v3.195H20.742z"/>
	</g>
</g>
</svg>
