<?xml version="1.0" encoding="utf-8"?>
<!-- Generator: Adobe Illustrator 15.1.0, SVG Export Plug-In . SVG Version: 6.00 Build 0)  -->
<!DOCTYPE svg PUBLIC "-//W3C//DTD SVG 1.1//EN" "http://www.w3.org/Graphics/SVG/1.1/DTD/svg11.dtd">
<svg version="1.1" id="Livello_1" xmlns="http://www.w3.org/2000/svg" xmlns:xlink="http://www.w3.org/1999/xlink" x="0px" y="0px"
	 width="30px" height="30px" viewBox="0 0 30 30" enable-background="new 0 0 30 30" xml:space="preserve">
<rect fill="#D7D1C7" width="30" height="30"/>
<g>
	<polygon fill="#685C4B" points="7.643,11.111 11.24,11.111 11.24,18.26 11.24,21.449 7.643,21.449 	"/>
	<path fill="#685C4B" d="M9.441,9.316L9.441,9.316c-1.079,0-1.798-0.765-1.798-1.708c0-0.942,0.719-1.663,1.798-1.663
		c1.08,0,1.754,0.717,1.799,1.663C11.24,8.552,10.563,9.316,9.441,9.316z"/>
	<path fill="#685C4B" d="M23.244,21.449h-3.549c0,0,0-5.368,0-5.768c0-0.401-0.05-1.776-1.553-1.776
		c-1.333,0-1.553,1.287-1.553,1.776c0,0.488,0,5.768,0,5.768h-3.551V11.242h3.551v1.378c0,0,0.711-1.378,2.795-1.378
		c2.131,0,3.861,1.467,3.861,4.44v5.768H23.244z"/>
</g>
</svg>
