<?xml version="1.0" encoding="utf-8"?>
<!-- Generator: Adobe Illustrator 15.1.0, SVG Export Plug-In . SVG Version: 6.00 Build 0)  -->
<!DOCTYPE svg PUBLIC "-//W3C//DTD SVG 1.1//EN" "http://www.w3.org/Graphics/SVG/1.1/DTD/svg11.dtd">
<svg version="1.1" id="Livello_1" xmlns="http://www.w3.org/2000/svg" xmlns:xlink="http://www.w3.org/1999/xlink" x="0px" y="0px"
	 width="50px" height="50px" viewBox="0 0 50 50" enable-background="new 0 0 50 50" xml:space="preserve">
<path fill="#FFFFFF" d="M24.738,39.438c-0.356-0.001-0.617-0.128-0.793-0.388l-0.053-0.078l-9.838-9.839
	c-0.407-0.408-0.407-0.978,0.002-1.387c0.239-0.237,0.394-0.307,0.693-0.307s0.454,0.069,0.694,0.308l8.306,8.306V11.443
	c0-0.645,0.355-1,1-1s1,0.355,1,1v24.609l8.307-8.307c0.239-0.237,0.395-0.307,0.693-0.307s0.454,0.069,0.695,0.309
	c0.199,0.199,0.306,0.439,0.306,0.691s-0.106,0.492-0.308,0.693l-9.836,9.837l-0.053,0.076c-0.18,0.263-0.441,0.391-0.799,0.392
	H24.738z"/>
</svg>
