<?xml version="1.0" encoding="utf-8"?>
<!-- Generator: Adobe Illustrator 15.1.0, SVG Export Plug-In . SVG Version: 6.00 Build 0)  -->
<!DOCTYPE svg PUBLIC "-//W3C//DTD SVG 1.1//EN" "http://www.w3.org/Graphics/SVG/1.1/DTD/svg11.dtd">
<svg version="1.1" id="Livello_1" xmlns="http://www.w3.org/2000/svg" xmlns:xlink="http://www.w3.org/1999/xlink" x="0px" y="0px"
	 width="50px" height="50px" viewBox="0 0 50 50" enable-background="new 0 0 50 50" xml:space="preserve">
<path fill="#FFFFFF" d="M24.827,38.522c-0.645,0-1-0.355-1-1v-24.61l-8.307,8.307c-0.238,0.238-0.394,0.307-0.693,0.307
	c-0.299,0-0.455-0.069-0.694-0.308c-0.406-0.407-0.406-0.978,0.001-1.386l9.837-9.837l0.053-0.078
	c0.179-0.262,0.439-0.389,0.797-0.39c0.372,0.001,0.633,0.128,0.81,0.388l0.053,0.078l9.838,9.838
	c0.406,0.408,0.406,0.979-0.003,1.388c-0.237,0.238-0.393,0.307-0.691,0.307s-0.455-0.069-0.694-0.308l-8.306-8.306v24.61
	C25.827,38.167,25.472,38.522,24.827,38.522z"/>
</svg>
